<svg xmlns="http://www.w3.org/2000/svg" width="98" height="97" viewBox="0 0 98 97">
  <path fill="#000000" d="M94.5,24.5 C94.5,24.5 91.4,9.7 78,4.5 C71.7,2 60.2,0.9 48.9,0.8 C37.6,0.9 26.1,2 19.8,4.5 C6.4,9.7 3.3,24.5 3.3,24.5 C1.3,32.9 0.6,41.4 0.7,48.9 C0.6,56.5 1.2,65 3.2,73.3 C3.2,73.3 6.3,88.1 19.7,93.3 C26,95.7 37.5,96.9 48.8,97 C60.2,97 71.7,95.8 78,93.4 C91.4,88.2 94.5,73.4 94.5,73.4 C96.5,65 97.2,56.5 97.1,49 C97.2,41.4 96.5,32.9 94.5,24.5 Z M64.1,54.2 L53.1,54.2 L53.1,65.2 C53.1,67.6 51.2,69.5 48.8,69.5 C46.4,69.5 44.5,67.6 44.5,65.2 L44.5,54.2 L33.5,54.2 C31.1,54.2 29.2,52.3 29.2,49.9 C29.2,47.5 31.1,45.6 33.5,45.6 L44.5,45.6 L44.5,34.6 C44.5,32.2 46.4,30.3 48.8,30.3 C51.2,30.3 53.1,32.2 53.1,34.6 L53.1,45.6 L64.1,45.6 C66.5,45.6 68.4,47.5 68.4,49.9 C68.4,52.3 66.5,54.2 64.1,54.2 Z"/>
</svg>
