<svg xmlns="http://www.w3.org/2000/svg" width="98" height="97" viewBox="0 0 98 97">
  <path fill="#000000" d="M94.8,24.4 C94.8,24.4 91.7,9.6 78.3,4.4 C72,2 60.5,0.8 49.2,0.7 C37.8,0.8 26.3,1.9 20,4.4 C6.6,9.6 3.5,24.4 3.5,24.4 C1.5,32.8 0.8,41.3 0.9,48.8 C0.8,56.3 1.4,64.9 3.5,73.2 C3.5,73.2 6.6,88 20,93.2 C26.3,95.6 37.8,96.8 49.1,96.9 C60.4,96.8 71.9,95.7 78.2,93.2 C91.6,88 94.7,73.2 94.7,73.2 C96.7,64.8 97.4,56.3 97.3,48.8 C97.4,41.3 96.8,32.8 94.8,24.4 Z M35.3,58.3 L22.6,48 L35.4,38.7 L38.4,42.9 L31,48.2 L38.5,54.2 L35.3,58.3 Z M46.3,65.2 L41.4,63.5 L52.3,32 L57.2,33.7 L46.3,65.2 Z M62.7,58.3 L59.4,54.3 L66.9,48.3 L59.5,43 L62.5,38.8 L75.4,48 L62.7,58.3 Z"/>
</svg>
