<svg xmlns="http://www.w3.org/2000/svg" width="20" height="14" viewBox="0 0 20 14">
  <path fill="#000000" d="M6.719,11.75 C6.483,11.75 6.245,11.667 6.055,11.498 L0.995,7 L6.336,2.252 C6.748,1.887 7.38,1.922 7.747,2.335 C8.114,2.748 8.077,3.38 7.664,3.747 L4.005,7 L7.383,10.002 C7.796,10.369 7.833,11.001 7.466,11.414 C7.269,11.637 6.994,11.75 6.719,11.75 Z M15.664,11.748 L21.005,7 L15.945,2.502 C15.532,2.135 14.9,2.172 14.534,2.585 C14.167,2.998 14.204,3.63 14.617,3.997 L17.995,7 L14.336,10.252 C13.923,10.619 13.886,11.251 14.253,11.664 C14.45,11.887 14.725,12 15,12 C15.236,12 15.474,11.917 15.664,11.748 Z M10.986,13.165 L12.986,1.165 C13.077,0.62 12.709,0.105 12.164,0.014 C11.617,-0.078 11.103,0.291 11.014,0.836 L9.014,12.836 C8.923,13.381 9.291,13.896 9.836,13.987 C9.892,13.996 9.946,14 10.001,14 C10.481,14 10.905,13.653 10.986,13.165 Z" transform="translate(-1)"/>
</svg>
